<mxfile host="app.diagrams.net" modified="2020-09-08T11:33:43.207Z" agent="5.0 (Windows)" etag="pRD6PzUiDkGenuKEJeM5" version="13.6.8" type="github">
  <diagram id="_VLQx521Do-SNY872RdX" name="context_model">
    <mxGraphModel dx="1422" dy="763" grid="1" gridSize="10" guides="1" tooltips="1" connect="1" arrows="1" fold="1" page="1" pageScale="1" pageWidth="1169" pageHeight="827" math="0" shadow="0">
      <root>
        <mxCell id="NEUwR7kofTDGOfef-DuA-0" />
        <mxCell id="NEUwR7kofTDGOfef-DuA-1" parent="NEUwR7kofTDGOfef-DuA-0" />
        <mxCell id="NEUwR7kofTDGOfef-DuA-16" value="&amp;lt;&amp;lt;System&amp;gt;&amp;gt;&lt;br&gt;Gripper" style="shape=folder;html=1;tabWidth=120;tabHeight=40;tabPosition=left;align=left;verticalAlign=top;spacingLeft=10;whiteSpace=wrap;" parent="NEUwR7kofTDGOfef-DuA-1" vertex="1">
          <mxGeometry x="280" y="80" width="560" height="320" as="geometry" />
        </mxCell>
        <mxCell id="NEUwR7kofTDGOfef-DuA-32" style="edgeStyle=orthogonalEdgeStyle;rounded=0;orthogonalLoop=1;jettySize=auto;html=1;exitX=0;exitY=0.5;exitDx=0;exitDy=0;entryX=0.75;entryY=0;entryDx=0;entryDy=0;" parent="NEUwR7kofTDGOfef-DuA-1" source="NEUwR7kofTDGOfef-DuA-10" target="NEUwR7kofTDGOfef-DuA-12" edge="1">
          <mxGeometry relative="1" as="geometry" />
        </mxCell>
        <mxCell id="NEUwR7kofTDGOfef-DuA-33" value="RGBD" style="edgeLabel;html=1;align=center;verticalAlign=middle;resizable=0;points=[];" parent="NEUwR7kofTDGOfef-DuA-32" vertex="1" connectable="0">
          <mxGeometry x="-0.0947" y="2" relative="1" as="geometry">
            <mxPoint as="offset" />
          </mxGeometry>
        </mxCell>
        <mxCell id="NEUwR7kofTDGOfef-DuA-56" style="edgeStyle=orthogonalEdgeStyle;rounded=0;orthogonalLoop=1;jettySize=auto;html=1;exitX=1;exitY=0.5;exitDx=0;exitDy=0;entryX=0;entryY=0.5;entryDx=0;entryDy=0;startArrow=classic;startFill=1;" parent="NEUwR7kofTDGOfef-DuA-1" source="NEUwR7kofTDGOfef-DuA-10" target="NEUwR7kofTDGOfef-DuA-55" edge="1">
          <mxGeometry relative="1" as="geometry">
            <Array as="points">
              <mxPoint x="770" y="180" />
              <mxPoint x="770" y="180" />
            </Array>
          </mxGeometry>
        </mxCell>
        <mxCell id="NEUwR7kofTDGOfef-DuA-10" value="&lt;p style=&quot;margin: 13px&quot;&gt;&lt;i&gt;&lt;b&gt;Vision System&lt;/b&gt;&lt;/i&gt;&lt;br&gt;&lt;/p&gt;" style="shape=rect;html=1;overflow=fill;whiteSpace=wrap;align=center;" parent="NEUwR7kofTDGOfef-DuA-1" vertex="1">
          <mxGeometry x="620" y="160" width="140" height="40" as="geometry" />
        </mxCell>
        <mxCell id="NEUwR7kofTDGOfef-DuA-60" value="provide apps" style="edgeStyle=orthogonalEdgeStyle;rounded=0;orthogonalLoop=1;jettySize=auto;html=1;exitX=0.5;exitY=1;exitDx=0;exitDy=0;entryX=0.5;entryY=0;entryDx=0;entryDy=0;startArrow=classic;startFill=1;endArrow=none;endFill=0;" parent="NEUwR7kofTDGOfef-DuA-1" source="NEUwR7kofTDGOfef-DuA-11" target="NEUwR7kofTDGOfef-DuA-59" edge="1">
          <mxGeometry relative="1" as="geometry" />
        </mxCell>
        <mxCell id="NEUwR7kofTDGOfef-DuA-11" value="&lt;p style=&quot;margin: 13px&quot;&gt;&lt;i&gt;&lt;b&gt;Skill-store&lt;/b&gt;&lt;/i&gt;&lt;br&gt;&lt;/p&gt;" style="shape=rect;html=1;overflow=fill;whiteSpace=wrap;align=center;" parent="NEUwR7kofTDGOfef-DuA-1" vertex="1">
          <mxGeometry x="980" y="280" width="120" height="40" as="geometry" />
        </mxCell>
        <mxCell id="NEUwR7kofTDGOfef-DuA-34" style="edgeStyle=orthogonalEdgeStyle;rounded=0;orthogonalLoop=1;jettySize=auto;html=1;exitX=0.25;exitY=0;exitDx=0;exitDy=0;entryX=1;entryY=0.75;entryDx=0;entryDy=0;" parent="NEUwR7kofTDGOfef-DuA-1" source="NEUwR7kofTDGOfef-DuA-12" target="NEUwR7kofTDGOfef-DuA-13" edge="1">
          <mxGeometry relative="1" as="geometry" />
        </mxCell>
        <mxCell id="NEUwR7kofTDGOfef-DuA-35" value="set Position" style="edgeLabel;html=1;align=center;verticalAlign=middle;resizable=0;points=[];" parent="NEUwR7kofTDGOfef-DuA-34" vertex="1" connectable="0">
          <mxGeometry x="-0.3684" y="15" relative="1" as="geometry">
            <mxPoint x="-15" y="-15" as="offset" />
          </mxGeometry>
        </mxCell>
        <mxCell id="NEUwR7kofTDGOfef-DuA-39" style="edgeStyle=orthogonalEdgeStyle;rounded=0;orthogonalLoop=1;jettySize=auto;html=1;exitX=0;exitY=0.75;exitDx=0;exitDy=0;entryX=0.75;entryY=0;entryDx=0;entryDy=0;" parent="NEUwR7kofTDGOfef-DuA-1" source="NEUwR7kofTDGOfef-DuA-12" target="NEUwR7kofTDGOfef-DuA-14" edge="1">
          <mxGeometry relative="1" as="geometry">
            <Array as="points">
              <mxPoint x="460" y="280" />
              <mxPoint x="460" y="320" />
              <mxPoint x="425" y="320" />
            </Array>
          </mxGeometry>
        </mxCell>
        <mxCell id="NEUwR7kofTDGOfef-DuA-40" value="on/off" style="edgeLabel;html=1;align=center;verticalAlign=middle;resizable=0;points=[];" parent="NEUwR7kofTDGOfef-DuA-39" vertex="1" connectable="0">
          <mxGeometry x="0.0857" y="1" relative="1" as="geometry">
            <mxPoint y="-11" as="offset" />
          </mxGeometry>
        </mxCell>
        <mxCell id="NEUwR7kofTDGOfef-DuA-44" style="edgeStyle=orthogonalEdgeStyle;rounded=0;orthogonalLoop=1;jettySize=auto;html=1;exitX=0.75;exitY=1;exitDx=0;exitDy=0;entryX=0.5;entryY=0;entryDx=0;entryDy=0;startArrow=classic;startFill=1;" parent="NEUwR7kofTDGOfef-DuA-1" source="NEUwR7kofTDGOfef-DuA-12" target="NEUwR7kofTDGOfef-DuA-38" edge="1">
          <mxGeometry relative="1" as="geometry">
            <mxPoint x="740" y="300" as="targetPoint" />
          </mxGeometry>
        </mxCell>
        <mxCell id="NEUwR7kofTDGOfef-DuA-45" value="send goals / feedback" style="edgeLabel;html=1;align=center;verticalAlign=middle;resizable=0;points=[];" parent="NEUwR7kofTDGOfef-DuA-44" vertex="1" connectable="0">
          <mxGeometry x="0.0143" relative="1" as="geometry">
            <mxPoint x="-1" y="-10" as="offset" />
          </mxGeometry>
        </mxCell>
        <mxCell id="NEUwR7kofTDGOfef-DuA-49" style="edgeStyle=orthogonalEdgeStyle;rounded=0;orthogonalLoop=1;jettySize=auto;html=1;exitX=1;exitY=0.5;exitDx=0;exitDy=0;entryX=0;entryY=0.5;entryDx=0;entryDy=0;startArrow=classic;startFill=1;" parent="NEUwR7kofTDGOfef-DuA-1" source="NEUwR7kofTDGOfef-DuA-12" target="NEUwR7kofTDGOfef-DuA-57" edge="1">
          <mxGeometry relative="1" as="geometry">
            <mxPoint x="800" y="290" as="targetPoint" />
          </mxGeometry>
        </mxCell>
        <mxCell id="NEUwR7kofTDGOfef-DuA-50" value="&lt;div&gt;Skill request/response&lt;/div&gt;" style="edgeLabel;html=1;align=center;verticalAlign=middle;resizable=0;points=[];" parent="NEUwR7kofTDGOfef-DuA-49" vertex="1" connectable="0">
          <mxGeometry x="-0.1241" y="-1" relative="1" as="geometry">
            <mxPoint y="-11" as="offset" />
          </mxGeometry>
        </mxCell>
        <mxCell id="NEUwR7kofTDGOfef-DuA-12" value="&lt;p style=&quot;margin: 13px&quot;&gt;&lt;i&gt;&lt;b&gt;Appllication&lt;/b&gt;&lt;/i&gt;&lt;br&gt;&lt;/p&gt;" style="shape=rect;html=1;overflow=fill;whiteSpace=wrap;align=center;" parent="NEUwR7kofTDGOfef-DuA-1" vertex="1">
          <mxGeometry x="490" y="250" width="140" height="40" as="geometry" />
        </mxCell>
        <mxCell id="NEUwR7kofTDGOfef-DuA-36" style="edgeStyle=orthogonalEdgeStyle;rounded=0;orthogonalLoop=1;jettySize=auto;html=1;exitX=1;exitY=0.25;exitDx=0;exitDy=0;entryX=0.5;entryY=0;entryDx=0;entryDy=0;" parent="NEUwR7kofTDGOfef-DuA-1" source="NEUwR7kofTDGOfef-DuA-13" target="NEUwR7kofTDGOfef-DuA-12" edge="1">
          <mxGeometry relative="1" as="geometry" />
        </mxCell>
        <mxCell id="NEUwR7kofTDGOfef-DuA-37" value="Feedback" style="edgeLabel;html=1;align=center;verticalAlign=middle;resizable=0;points=[];" parent="NEUwR7kofTDGOfef-DuA-36" vertex="1" connectable="0">
          <mxGeometry x="-0.2" y="2" relative="1" as="geometry">
            <mxPoint as="offset" />
          </mxGeometry>
        </mxCell>
        <mxCell id="NEUwR7kofTDGOfef-DuA-13" value="&lt;p style=&quot;margin: 13px&quot;&gt;&lt;i&gt;&lt;b&gt;Grasp Servo&lt;/b&gt;&lt;/i&gt;&lt;br&gt;&lt;/p&gt;" style="shape=rect;html=1;overflow=fill;whiteSpace=wrap;align=center;" parent="NEUwR7kofTDGOfef-DuA-1" vertex="1">
          <mxGeometry x="320" y="160" width="140" height="40" as="geometry" />
        </mxCell>
        <mxCell id="NEUwR7kofTDGOfef-DuA-41" style="edgeStyle=orthogonalEdgeStyle;rounded=0;orthogonalLoop=1;jettySize=auto;html=1;exitX=1;exitY=0.5;exitDx=0;exitDy=0;entryX=0.25;entryY=1;entryDx=0;entryDy=0;" parent="NEUwR7kofTDGOfef-DuA-1" source="NEUwR7kofTDGOfef-DuA-14" target="NEUwR7kofTDGOfef-DuA-12" edge="1">
          <mxGeometry relative="1" as="geometry" />
        </mxCell>
        <mxCell id="NEUwR7kofTDGOfef-DuA-42" value="states" style="edgeLabel;html=1;align=center;verticalAlign=middle;resizable=0;points=[];" parent="NEUwR7kofTDGOfef-DuA-41" vertex="1" connectable="0">
          <mxGeometry x="-0.3684" y="-7" relative="1" as="geometry">
            <mxPoint x="-3" y="-17" as="offset" />
          </mxGeometry>
        </mxCell>
        <mxCell id="NEUwR7kofTDGOfef-DuA-14" value="&lt;p style=&quot;margin: 13px&quot;&gt;&lt;i&gt;&lt;b&gt;Suction Unit&lt;/b&gt;&lt;/i&gt;&lt;br&gt;&lt;/p&gt;" style="shape=rect;html=1;overflow=fill;whiteSpace=wrap;align=center;" parent="NEUwR7kofTDGOfef-DuA-1" vertex="1">
          <mxGeometry x="320" y="340" width="140" height="40" as="geometry" />
        </mxCell>
        <mxCell id="NEUwR7kofTDGOfef-DuA-52" style="edgeStyle=orthogonalEdgeStyle;rounded=0;orthogonalLoop=1;jettySize=auto;html=1;exitX=0;exitY=0.25;exitDx=0;exitDy=0;entryX=1;entryY=0.5;entryDx=0;entryDy=0;" parent="NEUwR7kofTDGOfef-DuA-1" source="NEUwR7kofTDGOfef-DuA-18" target="NEUwR7kofTDGOfef-DuA-55" edge="1">
          <mxGeometry relative="1" as="geometry">
            <mxPoint x="890" y="130" as="targetPoint" />
          </mxGeometry>
        </mxCell>
        <mxCell id="NEUwR7kofTDGOfef-DuA-53" value="&lt;div&gt;Environment&lt;/div&gt;&lt;div&gt;Data&lt;br&gt;&lt;/div&gt;" style="edgeLabel;html=1;align=center;verticalAlign=middle;resizable=0;points=[];" parent="NEUwR7kofTDGOfef-DuA-52" vertex="1" connectable="0">
          <mxGeometry x="-0.3" relative="1" as="geometry">
            <mxPoint x="-18" y="-20" as="offset" />
          </mxGeometry>
        </mxCell>
        <mxCell id="NEUwR7kofTDGOfef-DuA-18" value="&lt;p&gt;&amp;lt;&amp;lt;Environment&amp;gt;&amp;gt;&lt;br&gt;&lt;b&gt;Handling Task&lt;br&gt;&lt;/b&gt;&lt;/p&gt;" style="shape=rect;html=1;overflow=fill;whiteSpace=wrap;align=center;" parent="NEUwR7kofTDGOfef-DuA-1" vertex="1">
          <mxGeometry x="980" y="160" width="120" height="80" as="geometry" />
        </mxCell>
        <mxCell id="NEUwR7kofTDGOfef-DuA-48" value="feedback" style="edgeStyle=orthogonalEdgeStyle;rounded=0;orthogonalLoop=1;jettySize=auto;html=1;exitX=0.75;exitY=0;exitDx=0;exitDy=0;entryX=0.75;entryY=1;entryDx=0;entryDy=0;" parent="NEUwR7kofTDGOfef-DuA-1" source="NEUwR7kofTDGOfef-DuA-20" target="NEUwR7kofTDGOfef-DuA-38" edge="1">
          <mxGeometry relative="1" as="geometry" />
        </mxCell>
        <mxCell id="NEUwR7kofTDGOfef-DuA-20" value="&lt;p style=&quot;margin: 13px&quot;&gt;&lt;i&gt;&lt;b&gt;IManipulator&lt;/b&gt;&lt;/i&gt;&lt;br&gt;&lt;/p&gt;" style="shape=rect;html=1;overflow=fill;whiteSpace=wrap;align=center;" parent="NEUwR7kofTDGOfef-DuA-1" vertex="1">
          <mxGeometry x="680" y="480" width="120" height="40" as="geometry" />
        </mxCell>
        <mxCell id="NEUwR7kofTDGOfef-DuA-63" style="edgeStyle=orthogonalEdgeStyle;rounded=0;orthogonalLoop=1;jettySize=auto;html=1;exitX=0.5;exitY=0;exitDx=0;exitDy=0;entryX=0.5;entryY=1;entryDx=0;entryDy=0;startArrow=classic;startFill=1;" parent="NEUwR7kofTDGOfef-DuA-1" source="NEUwR7kofTDGOfef-DuA-25" target="NEUwR7kofTDGOfef-DuA-12" edge="1">
          <mxGeometry relative="1" as="geometry" />
        </mxCell>
        <mxCell id="98D__TSafP_urw1Wggbw-9" value="config" style="edgeLabel;html=1;align=center;verticalAlign=middle;resizable=0;points=[];" parent="NEUwR7kofTDGOfef-DuA-63" vertex="1" connectable="0">
          <mxGeometry x="0.2444" y="1" relative="1" as="geometry">
            <mxPoint as="offset" />
          </mxGeometry>
        </mxCell>
        <mxCell id="NEUwR7kofTDGOfef-DuA-25" value="&lt;p style=&quot;margin: 13px&quot;&gt;&lt;i&gt;&lt;b&gt;UI&lt;/b&gt;&lt;/i&gt;&lt;br&gt;&lt;/p&gt;" style="shape=rect;html=1;overflow=fill;whiteSpace=wrap;align=center;" parent="NEUwR7kofTDGOfef-DuA-1" vertex="1">
          <mxGeometry x="510" y="380" width="100" height="40" as="geometry" />
        </mxCell>
        <mxCell id="NEUwR7kofTDGOfef-DuA-47" value="Joint states" style="edgeStyle=orthogonalEdgeStyle;rounded=0;orthogonalLoop=1;jettySize=auto;html=1;exitX=0.25;exitY=1;exitDx=0;exitDy=0;entryX=0.25;entryY=0;entryDx=0;entryDy=0;" parent="NEUwR7kofTDGOfef-DuA-1" source="NEUwR7kofTDGOfef-DuA-38" target="NEUwR7kofTDGOfef-DuA-20" edge="1">
          <mxGeometry relative="1" as="geometry" />
        </mxCell>
        <mxCell id="NEUwR7kofTDGOfef-DuA-38" value="&lt;p style=&quot;margin: 13px&quot;&gt;&lt;i&gt;&lt;b&gt;IRobot&lt;br&gt;&lt;/b&gt;&lt;/i&gt;&lt;/p&gt;" style="shape=rect;html=1;overflow=fill;whiteSpace=wrap;align=center;" parent="NEUwR7kofTDGOfef-DuA-1" vertex="1">
          <mxGeometry x="680" y="380" width="120" height="40" as="geometry" />
        </mxCell>
        <mxCell id="NEUwR7kofTDGOfef-DuA-29" value="&lt;div&gt;solves&lt;/div&gt;&lt;div&gt;Handling&lt;/div&gt;&lt;div&gt;Task&lt;br&gt;&lt;/div&gt;" style="edgeStyle=orthogonalEdgeStyle;rounded=0;orthogonalLoop=1;jettySize=auto;html=1;entryX=0;entryY=0.75;entryDx=0;entryDy=0;" parent="NEUwR7kofTDGOfef-DuA-1" target="NEUwR7kofTDGOfef-DuA-18" edge="1">
          <mxGeometry x="0.0909" y="-22" relative="1" as="geometry">
            <mxPoint x="840" y="220" as="sourcePoint" />
            <mxPoint x="201" y="280" as="targetPoint" />
            <mxPoint x="-10" y="-2" as="offset" />
          </mxGeometry>
        </mxCell>
        <mxCell id="NEUwR7kofTDGOfef-DuA-61" style="edgeStyle=orthogonalEdgeStyle;rounded=0;orthogonalLoop=1;jettySize=auto;html=1;exitX=0.5;exitY=0;exitDx=0;exitDy=0;entryX=0.5;entryY=1;entryDx=0;entryDy=0;startArrow=classic;startFill=1;" parent="NEUwR7kofTDGOfef-DuA-1" source="NEUwR7kofTDGOfef-DuA-54" target="NEUwR7kofTDGOfef-DuA-25" edge="1">
          <mxGeometry relative="1" as="geometry" />
        </mxCell>
        <mxCell id="NEUwR7kofTDGOfef-DuA-62" value="config handling task" style="edgeLabel;html=1;align=center;verticalAlign=middle;resizable=0;points=[];" parent="NEUwR7kofTDGOfef-DuA-61" vertex="1" connectable="0">
          <mxGeometry x="0.2" y="-3" relative="1" as="geometry">
            <mxPoint x="-63" y="10" as="offset" />
          </mxGeometry>
        </mxCell>
        <mxCell id="NEUwR7kofTDGOfef-DuA-54" value="&lt;p&gt;&amp;lt;&amp;lt;actor&amp;gt;&amp;gt;&lt;br&gt;&lt;b&gt;User&lt;/b&gt;&lt;/p&gt;" style="shape=rect;html=1;overflow=fill;whiteSpace=wrap;align=center;" parent="NEUwR7kofTDGOfef-DuA-1" vertex="1">
          <mxGeometry x="517.5" y="470" width="85" height="60" as="geometry" />
        </mxCell>
        <mxCell id="NEUwR7kofTDGOfef-DuA-55" value="&lt;p style=&quot;margin: 13px&quot;&gt;&lt;i&gt;&lt;b&gt;IVision&lt;/b&gt;&lt;/i&gt;&lt;br&gt;&lt;/p&gt;" style="shape=rect;html=1;overflow=fill;whiteSpace=wrap;align=center;" parent="NEUwR7kofTDGOfef-DuA-1" vertex="1">
          <mxGeometry x="810" y="160" width="60" height="40" as="geometry" />
        </mxCell>
        <mxCell id="NEUwR7kofTDGOfef-DuA-58" value="skill container" style="edgeStyle=orthogonalEdgeStyle;rounded=0;orthogonalLoop=1;jettySize=auto;html=1;exitX=1;exitY=0.5;exitDx=0;exitDy=0;entryX=0;entryY=0.5;entryDx=0;entryDy=0;startArrow=classic;startFill=1;" parent="NEUwR7kofTDGOfef-DuA-1" source="NEUwR7kofTDGOfef-DuA-57" target="NEUwR7kofTDGOfef-DuA-11" edge="1">
          <mxGeometry relative="1" as="geometry" />
        </mxCell>
        <mxCell id="NEUwR7kofTDGOfef-DuA-57" value="&lt;p style=&quot;margin: 13px&quot;&gt;&lt;i&gt;&lt;b&gt;IWeb&lt;/b&gt;&lt;/i&gt;&lt;br&gt;&lt;/p&gt;" style="shape=rect;html=1;overflow=fill;whiteSpace=wrap;align=center;" parent="NEUwR7kofTDGOfef-DuA-1" vertex="1">
          <mxGeometry x="810" y="280" width="60" height="40" as="geometry" />
        </mxCell>
        <mxCell id="98D__TSafP_urw1Wggbw-8" value="&lt;div&gt;Tutorials,&lt;/div&gt;&lt;div&gt;Reference&lt;br&gt;&lt;/div&gt;" style="edgeStyle=orthogonalEdgeStyle;rounded=0;orthogonalLoop=1;jettySize=auto;html=1;exitX=0.5;exitY=1;exitDx=0;exitDy=0;entryX=0.5;entryY=0;entryDx=0;entryDy=0;startArrow=classic;startFill=1;endArrow=none;endFill=0;" parent="NEUwR7kofTDGOfef-DuA-1" source="NEUwR7kofTDGOfef-DuA-59" target="98D__TSafP_urw1Wggbw-5" edge="1">
          <mxGeometry relative="1" as="geometry" />
        </mxCell>
        <mxCell id="NEUwR7kofTDGOfef-DuA-59" value="&lt;p&gt;&amp;lt;&amp;lt;actor&amp;gt;&amp;gt;&lt;br&gt;&lt;b&gt;Developer&lt;/b&gt;&lt;/p&gt;" style="shape=rect;html=1;overflow=fill;whiteSpace=wrap;align=center;" parent="NEUwR7kofTDGOfef-DuA-1" vertex="1">
          <mxGeometry x="980" y="400" width="120" height="50" as="geometry" />
        </mxCell>
        <mxCell id="98D__TSafP_urw1Wggbw-4" value="&lt;div&gt;sync tasks, &lt;br&gt;&lt;/div&gt;&lt;div&gt;process data&lt;/div&gt;" style="edgeStyle=orthogonalEdgeStyle;rounded=0;orthogonalLoop=1;jettySize=auto;html=1;exitX=1;exitY=0.5;exitDx=0;exitDy=0;entryX=0;entryY=0.5;entryDx=0;entryDy=0;startArrow=classic;startFill=1;" parent="NEUwR7kofTDGOfef-DuA-1" source="98D__TSafP_urw1Wggbw-0" target="NEUwR7kofTDGOfef-DuA-12" edge="1">
          <mxGeometry relative="1" as="geometry" />
        </mxCell>
        <mxCell id="98D__TSafP_urw1Wggbw-0" value="&lt;p style=&quot;margin: 13px&quot;&gt;&lt;i&gt;&lt;b&gt;ISys&lt;/b&gt;&lt;/i&gt;&lt;br&gt;&lt;/p&gt;" style="shape=rect;html=1;overflow=fill;whiteSpace=wrap;align=center;" parent="NEUwR7kofTDGOfef-DuA-1" vertex="1">
          <mxGeometry x="250" y="250" width="60" height="40" as="geometry" />
        </mxCell>
        <mxCell id="98D__TSafP_urw1Wggbw-3" value="&lt;div&gt;Process&lt;/div&gt;&lt;div&gt;Data&lt;br&gt;&lt;/div&gt;" style="edgeStyle=orthogonalEdgeStyle;rounded=0;orthogonalLoop=1;jettySize=auto;html=1;exitX=1;exitY=0.5;exitDx=0;exitDy=0;entryX=0;entryY=0.5;entryDx=0;entryDy=0;startArrow=classic;startFill=1;" parent="NEUwR7kofTDGOfef-DuA-1" source="98D__TSafP_urw1Wggbw-2" target="98D__TSafP_urw1Wggbw-0" edge="1">
          <mxGeometry y="20" relative="1" as="geometry">
            <mxPoint as="offset" />
          </mxGeometry>
        </mxCell>
        <mxCell id="98D__TSafP_urw1Wggbw-2" value="&lt;p&gt;&amp;lt;&amp;lt;Systems&amp;gt;&amp;gt;&lt;br&gt;&lt;b&gt;Manipulators,UGV,&lt;br&gt;Machines&lt;br&gt;&lt;/b&gt;&lt;/p&gt;" style="shape=rect;html=1;overflow=fill;whiteSpace=wrap;align=center;" parent="NEUwR7kofTDGOfef-DuA-1" vertex="1">
          <mxGeometry x="70" y="230" width="120" height="80" as="geometry" />
        </mxCell>
        <mxCell id="98D__TSafP_urw1Wggbw-5" value="&lt;p style=&quot;margin: 13px&quot;&gt;&lt;i&gt;&lt;b&gt;Documentation&lt;/b&gt;&lt;/i&gt;&lt;br&gt;&lt;/p&gt;" style="shape=rect;html=1;overflow=fill;whiteSpace=wrap;align=center;" parent="NEUwR7kofTDGOfef-DuA-1" vertex="1">
          <mxGeometry x="980" y="510" width="120" height="40" as="geometry" />
        </mxCell>
      </root>
    </mxGraphModel>
  </diagram>
</mxfile>
